<?xml version="1.0" encoding="UTF-8" standalone="no"?>
<!DOCTYPE svg PUBLIC "-//W3C//DTD SVG 1.1//EN"
 "http://www.w3.org/Graphics/SVG/1.1/DTD/svg11.dtd">
<!-- Generated by graphviz version 2.38.0 (20140413.2041)
 -->
<!-- Title: %3 Pages: 1 -->
<svg width="1214pt" height="305pt"
 viewBox="0.00 0.00 1214.49 305.00" xmlns="http://www.w3.org/2000/svg" xmlns:xlink="http://www.w3.org/1999/xlink">
<g id="graph0" class="graph" transform="scale(1 1) rotate(0) translate(4 301)">
<title>%3</title>
<polygon fill="white" stroke="none" points="-4,4 -4,-301 1210.49,-301 1210.49,4 -4,4"/>
<!-- Home_Owner (0) -->
<g id="node1" class="node"><title>Home_Owner (0)</title>
<ellipse fill="none" stroke="black" cx="73.4435" cy="-279" rx="73.387" ry="18"/>
<text text-anchor="middle" x="73.4435" y="-275.3" font-family="Times,serif" font-size="14.00">Home_Owner (0)</text>
</g>
<!-- No (0) -->
<g id="node2" class="node"><title>No (0)</title>
<ellipse fill="none" stroke="black" cx="50.4435" cy="-105" rx="34.394" ry="18"/>
<text text-anchor="middle" x="50.4435" y="-101.3" font-family="Times,serif" font-size="14.00">No (0)</text>
</g>
<!-- Home_Owner (0)&#45;&gt;No (0) -->
<g id="edge1" class="edge"><title>Home_Owner (0)&#45;&gt;No (0)</title>
<path fill="none" stroke="red" d="M63.5907,-261.059C56.4145,-247.692 47.3025,-228.308 43.4435,-210 38.0154,-184.248 41.0135,-154.192 44.6161,-133.032"/>
<polygon fill="red" stroke="red" points="48.0696,-133.604 46.4561,-123.133 41.1875,-132.325 48.0696,-133.604"/>
<text text-anchor="middle" x="54.4435" y="-188.3" font-family="Times,serif" font-size="14.00">Yes</text>
</g>
<!-- Annual_Income (0) -->
<g id="node3" class="node"><title>Annual_Income (0)</title>
<ellipse fill="none" stroke="black" cx="155.443" cy="-192" rx="80.6858" ry="18"/>
<text text-anchor="middle" x="155.443" y="-188.3" font-family="Times,serif" font-size="14.00">Annual_Income (0)</text>
</g>
<!-- Home_Owner (0)&#45;&gt;Annual_Income (0) -->
<g id="edge2" class="edge"><title>Home_Owner (0)&#45;&gt;Annual_Income (0)</title>
<path fill="none" stroke="blue" d="M89.644,-261.207C101.774,-248.633 118.542,-231.252 132.115,-217.182"/>
<polygon fill="blue" stroke="blue" points="134.853,-219.385 139.277,-209.758 129.815,-214.525 134.853,-219.385"/>
<text text-anchor="middle" x="127.943" y="-231.8" font-family="Times,serif" font-size="14.00">No</text>
</g>
<!-- Annual_Income (0)&#45;&gt;No (0) -->
<g id="edge3" class="edge"><title>Annual_Income (0)&#45;&gt;No (0)</title>
<path fill="none" stroke="red" d="M134.949,-174.409C118.181,-160.835 94.3676,-141.558 76.2914,-126.925"/>
<polygon fill="red" stroke="red" points="78.4105,-124.137 68.4358,-120.565 74.0061,-129.578 78.4105,-124.137"/>
<text text-anchor="middle" x="126.443" y="-144.8" font-family="Times,serif" font-size="14.00">&lt;=,80</text>
</g>
<!-- Yes (0) -->
<g id="node4" class="node"><title>Yes (0)</title>
<ellipse fill="none" stroke="black" cx="155.443" cy="-105" rx="37.0935" ry="18"/>
<text text-anchor="middle" x="155.443" y="-101.3" font-family="Times,serif" font-size="14.00">Yes (0)</text>
</g>
<!-- Annual_Income (0)&#45;&gt;Yes (0) -->
<g id="edge4" class="edge"><title>Annual_Income (0)&#45;&gt;Yes (0)</title>
<path fill="none" stroke="blue" d="M155.443,-173.799C155.443,-162.163 155.443,-146.548 155.443,-133.237"/>
<polygon fill="blue" stroke="blue" points="158.944,-133.175 155.443,-123.175 151.944,-133.175 158.944,-133.175"/>
<text text-anchor="middle" x="168.443" y="-144.8" font-family="Times,serif" font-size="14.00">&gt;,80</text>
</g>
<!-- Annual_Income (1) -->
<g id="node5" class="node"><title>Annual_Income (1)</title>
<ellipse fill="none" stroke="black" cx="336.443" cy="-279" rx="80.6858" ry="18"/>
<text text-anchor="middle" x="336.443" y="-275.3" font-family="Times,serif" font-size="14.00">Annual_Income (1)</text>
</g>
<!-- Yes (1) -->
<g id="node6" class="node"><title>Yes (1)</title>
<ellipse fill="none" stroke="black" cx="291.443" cy="-192" rx="37.0935" ry="18"/>
<text text-anchor="middle" x="291.443" y="-188.3" font-family="Times,serif" font-size="14.00">Yes (1)</text>
</g>
<!-- Annual_Income (1)&#45;&gt;Yes (1) -->
<g id="edge5" class="edge"><title>Annual_Income (1)&#45;&gt;Yes (1)</title>
<path fill="none" stroke="red" d="M327.337,-260.799C320.91,-248.659 312.191,-232.19 304.956,-218.523"/>
<polygon fill="red" stroke="red" points="308.002,-216.797 300.23,-209.597 301.816,-220.072 308.002,-216.797"/>
<text text-anchor="middle" x="334.443" y="-231.8" font-family="Times,serif" font-size="14.00">&lt;=,97</text>
</g>
<!-- No (1) -->
<g id="node7" class="node"><title>No (1)</title>
<ellipse fill="none" stroke="black" cx="380.443" cy="-192" rx="34.394" ry="18"/>
<text text-anchor="middle" x="380.443" y="-188.3" font-family="Times,serif" font-size="14.00">No (1)</text>
</g>
<!-- Annual_Income (1)&#45;&gt;No (1) -->
<g id="edge6" class="edge"><title>Annual_Income (1)&#45;&gt;No (1)</title>
<path fill="none" stroke="blue" d="M345.348,-260.799C351.632,-248.659 360.157,-232.19 367.232,-218.523"/>
<polygon fill="blue" stroke="blue" points="370.363,-220.087 371.852,-209.597 364.147,-216.869 370.363,-220.087"/>
<text text-anchor="middle" x="374.443" y="-231.8" font-family="Times,serif" font-size="14.00">&gt;,97</text>
</g>
<!-- Home_Owner (2) -->
<g id="node8" class="node"><title>Home_Owner (2)</title>
<ellipse fill="none" stroke="black" cx="535.443" cy="-279" rx="73.387" ry="18"/>
<text text-anchor="middle" x="535.443" y="-275.3" font-family="Times,serif" font-size="14.00">Home_Owner (2)</text>
</g>
<!-- No (2) -->
<g id="node9" class="node"><title>No (2)</title>
<ellipse fill="none" stroke="black" cx="466.443" cy="-105" rx="34.394" ry="18"/>
<text text-anchor="middle" x="466.443" y="-101.3" font-family="Times,serif" font-size="14.00">No (2)</text>
</g>
<!-- Home_Owner (2)&#45;&gt;No (2) -->
<g id="edge7" class="edge"><title>Home_Owner (2)&#45;&gt;No (2)</title>
<path fill="none" stroke="red" d="M508.244,-262.193C490.722,-250.322 469.416,-232.305 459.443,-210 448.525,-185.581 452.549,-154.689 457.9,-132.94"/>
<polygon fill="red" stroke="red" points="461.338,-133.633 460.574,-123.066 454.581,-131.803 461.338,-133.633"/>
<text text-anchor="middle" x="470.443" y="-188.3" font-family="Times,serif" font-size="14.00">Yes</text>
</g>
<!-- Annual_Income (2) -->
<g id="node10" class="node"><title>Annual_Income (2)</title>
<ellipse fill="none" stroke="black" cx="571.443" cy="-192" rx="80.6858" ry="18"/>
<text text-anchor="middle" x="571.443" y="-188.3" font-family="Times,serif" font-size="14.00">Annual_Income (2)</text>
</g>
<!-- Home_Owner (2)&#45;&gt;Annual_Income (2) -->
<g id="edge8" class="edge"><title>Home_Owner (2)&#45;&gt;Annual_Income (2)</title>
<path fill="none" stroke="blue" d="M542.729,-260.799C547.755,-248.932 554.533,-232.928 560.242,-219.449"/>
<polygon fill="blue" stroke="blue" points="563.492,-220.749 564.169,-210.175 557.046,-218.019 563.492,-220.749"/>
<text text-anchor="middle" x="564.943" y="-231.8" font-family="Times,serif" font-size="14.00">No</text>
</g>
<!-- Annual_Income (2)&#45;&gt;No (2) -->
<g id="edge9" class="edge"><title>Annual_Income (2)&#45;&gt;No (2)</title>
<path fill="none" stroke="red" d="M550.949,-174.409C534.181,-160.835 510.368,-141.558 492.291,-126.925"/>
<polygon fill="red" stroke="red" points="494.41,-124.137 484.436,-120.565 490.006,-129.578 494.41,-124.137"/>
<text text-anchor="middle" x="542.443" y="-144.8" font-family="Times,serif" font-size="14.00">&lt;=,80</text>
</g>
<!-- Yes (2) -->
<g id="node11" class="node"><title>Yes (2)</title>
<ellipse fill="none" stroke="black" cx="571.443" cy="-105" rx="37.0935" ry="18"/>
<text text-anchor="middle" x="571.443" y="-101.3" font-family="Times,serif" font-size="14.00">Yes (2)</text>
</g>
<!-- Annual_Income (2)&#45;&gt;Yes (2) -->
<g id="edge10" class="edge"><title>Annual_Income (2)&#45;&gt;Yes (2)</title>
<path fill="none" stroke="blue" d="M571.443,-173.799C571.443,-162.163 571.443,-146.548 571.443,-133.237"/>
<polygon fill="blue" stroke="blue" points="574.944,-133.175 571.443,-123.175 567.944,-133.175 574.944,-133.175"/>
<text text-anchor="middle" x="584.443" y="-144.8" font-family="Times,serif" font-size="14.00">&gt;,80</text>
</g>
<!-- Marital_Status (3) -->
<g id="node12" class="node"><title>Marital_Status (3)</title>
<ellipse fill="none" stroke="black" cx="816.443" cy="-279" rx="75.2868" ry="18"/>
<text text-anchor="middle" x="816.443" y="-275.3" font-family="Times,serif" font-size="14.00">Marital_Status (3)</text>
</g>
<!-- Home_Owner (3) -->
<g id="node13" class="node"><title>Home_Owner (3)</title>
<ellipse fill="none" stroke="black" cx="770.443" cy="-192" rx="73.387" ry="18"/>
<text text-anchor="middle" x="770.443" y="-188.3" font-family="Times,serif" font-size="14.00">Home_Owner (3)</text>
</g>
<!-- Marital_Status (3)&#45;&gt;Home_Owner (3) -->
<g id="edge11" class="edge"><title>Marital_Status (3)&#45;&gt;Home_Owner (3)</title>
<path fill="none" stroke="red" d="M788.315,-262.261C781.59,-257.055 775.259,-250.608 771.443,-243 767.965,-236.064 766.793,-227.876 766.742,-220.157"/>
<polygon fill="red" stroke="red" points="770.241,-220.247 767.254,-210.082 763.251,-219.891 770.241,-220.247"/>
<text text-anchor="middle" x="815.943" y="-231.8" font-family="Times,serif" font-size="14.00">Single,Divorced</text>
</g>
<!-- No (3) -->
<g id="node14" class="node"><title>No (3)</title>
<ellipse fill="none" stroke="black" cx="824.443" cy="-18" rx="34.394" ry="18"/>
<text text-anchor="middle" x="824.443" y="-14.3" font-family="Times,serif" font-size="14.00">No (3)</text>
</g>
<!-- Marital_Status (3)&#45;&gt;No (3) -->
<g id="edge12" class="edge"><title>Marital_Status (3)&#45;&gt;No (3)</title>
<path fill="none" stroke="blue" d="M844.058,-262.198C850.634,-256.992 856.797,-250.561 860.443,-243 892.432,-176.68 858.506,-87.7734 837.874,-44.6307"/>
<polygon fill="blue" stroke="blue" points="840.892,-42.837 833.332,-35.4143 834.613,-45.9314 840.892,-42.837"/>
<text text-anchor="middle" x="894.943" y="-144.8" font-family="Times,serif" font-size="14.00">Married</text>
</g>
<!-- Home_Owner (3)&#45;&gt;No (3) -->
<g id="edge13" class="edge"><title>Home_Owner (3)&#45;&gt;No (3)</title>
<path fill="none" stroke="red" d="M777.923,-173.888C783.709,-160.266 791.68,-140.627 797.443,-123 805.874,-97.2145 813.439,-67.1628 818.402,-46.0135"/>
<polygon fill="red" stroke="red" points="821.847,-46.6509 820.686,-36.1199 815.026,-45.0763 821.847,-46.6509"/>
<text text-anchor="middle" x="819.443" y="-101.3" font-family="Times,serif" font-size="14.00">Yes</text>
</g>
<!-- Annual_Income (3) -->
<g id="node15" class="node"><title>Annual_Income (3)</title>
<ellipse fill="none" stroke="black" cx="707.443" cy="-105" rx="80.6858" ry="18"/>
<text text-anchor="middle" x="707.443" y="-101.3" font-family="Times,serif" font-size="14.00">Annual_Income (3)</text>
</g>
<!-- Home_Owner (3)&#45;&gt;Annual_Income (3) -->
<g id="edge14" class="edge"><title>Home_Owner (3)&#45;&gt;Annual_Income (3)</title>
<path fill="none" stroke="blue" d="M757.997,-174.207C748.91,-161.946 736.434,-145.114 726.15,-131.239"/>
<polygon fill="blue" stroke="blue" points="728.846,-128.999 720.08,-123.049 723.223,-133.167 728.846,-128.999"/>
<text text-anchor="middle" x="751.943" y="-144.8" font-family="Times,serif" font-size="14.00">No</text>
</g>
<!-- Annual_Income (3)&#45;&gt;No (3) -->
<g id="edge15" class="edge"><title>Annual_Income (3)&#45;&gt;No (3)</title>
<path fill="none" stroke="red" d="M730.002,-87.6111C749.06,-73.7656 776.427,-53.8837 796.799,-39.0832"/>
<polygon fill="red" stroke="red" points="799.024,-41.793 805.058,-33.0837 794.91,-36.1297 799.024,-41.793"/>
<text text-anchor="middle" x="790.443" y="-57.8" font-family="Times,serif" font-size="14.00">&lt;=,77</text>
</g>
<!-- Yes (3) -->
<g id="node16" class="node"><title>Yes (3)</title>
<ellipse fill="none" stroke="black" cx="707.443" cy="-18" rx="37.0935" ry="18"/>
<text text-anchor="middle" x="707.443" y="-14.3" font-family="Times,serif" font-size="14.00">Yes (3)</text>
</g>
<!-- Annual_Income (3)&#45;&gt;Yes (3) -->
<g id="edge16" class="edge"><title>Annual_Income (3)&#45;&gt;Yes (3)</title>
<path fill="none" stroke="blue" d="M707.443,-86.799C707.443,-75.1626 707.443,-59.5479 707.443,-46.2368"/>
<polygon fill="blue" stroke="blue" points="710.944,-46.1754 707.443,-36.1754 703.944,-46.1755 710.944,-46.1754"/>
<text text-anchor="middle" x="720.443" y="-57.8" font-family="Times,serif" font-size="14.00">&gt;,77</text>
</g>
<!-- No (4) -->
<g id="node17" class="node"><title>No (4)</title>
<ellipse fill="none" stroke="black" cx="967.443" cy="-279" rx="34.394" ry="18"/>
<text text-anchor="middle" x="967.443" y="-275.3" font-family="Times,serif" font-size="14.00">No (4)</text>
</g>
<!-- Marital_Status (5) -->
<g id="node18" class="node"><title>Marital_Status (5)</title>
<ellipse fill="none" stroke="black" cx="1107.44" cy="-279" rx="75.2868" ry="18"/>
<text text-anchor="middle" x="1107.44" y="-275.3" font-family="Times,serif" font-size="14.00">Marital_Status (5)</text>
</g>
<!-- Annual_Income (5) -->
<g id="node19" class="node"><title>Annual_Income (5)</title>
<ellipse fill="none" stroke="black" cx="1033.44" cy="-192" rx="80.6858" ry="18"/>
<text text-anchor="middle" x="1033.44" y="-188.3" font-family="Times,serif" font-size="14.00">Annual_Income (5)</text>
</g>
<!-- Marital_Status (5)&#45;&gt;Annual_Income (5) -->
<g id="edge17" class="edge"><title>Marital_Status (5)&#45;&gt;Annual_Income (5)</title>
<path fill="none" stroke="red" d="M1072.29,-262.872C1063.48,-257.668 1054.75,-251.07 1048.44,-243 1043.26,-236.373 1039.87,-227.979 1037.64,-219.97"/>
<polygon fill="red" stroke="red" points="1041.05,-219.162 1035.41,-210.194 1034.23,-220.723 1041.05,-219.162"/>
<text text-anchor="middle" x="1089.94" y="-231.8" font-family="Times,serif" font-size="14.00">Single,Married</text>
</g>
<!-- Yes (5) -->
<g id="node20" class="node"><title>Yes (5)</title>
<ellipse fill="none" stroke="black" cx="1169.44" cy="-192" rx="37.0935" ry="18"/>
<text text-anchor="middle" x="1169.44" y="-188.3" font-family="Times,serif" font-size="14.00">Yes (5)</text>
</g>
<!-- Marital_Status (5)&#45;&gt;Yes (5) -->
<g id="edge18" class="edge"><title>Marital_Status (5)&#45;&gt;Yes (5)</title>
<path fill="none" stroke="blue" d="M1121.38,-261.117C1125.96,-255.434 1131.01,-249.01 1135.44,-243 1141.4,-234.938 1147.64,-225.935 1153.12,-217.814"/>
<polygon fill="blue" stroke="blue" points="1156.08,-219.692 1158.73,-209.435 1150.26,-215.799 1156.08,-219.692"/>
<text text-anchor="middle" x="1171.94" y="-231.8" font-family="Times,serif" font-size="14.00">Divorced</text>
</g>
<!-- Home_Owner (5) -->
<g id="node21" class="node"><title>Home_Owner (5)</title>
<ellipse fill="none" stroke="black" cx="989.443" cy="-105" rx="73.387" ry="18"/>
<text text-anchor="middle" x="989.443" y="-101.3" font-family="Times,serif" font-size="14.00">Home_Owner (5)</text>
</g>
<!-- Annual_Income (5)&#45;&gt;Home_Owner (5) -->
<g id="edge19" class="edge"><title>Annual_Income (5)&#45;&gt;Home_Owner (5)</title>
<path fill="none" stroke="red" d="M1024.54,-173.799C1018.3,-161.738 1009.84,-145.403 1002.79,-131.79"/>
<polygon fill="red" stroke="red" points="1005.89,-130.157 998.184,-122.885 999.673,-133.375 1005.89,-130.157"/>
<text text-anchor="middle" x="1031.44" y="-144.8" font-family="Times,serif" font-size="14.00">&lt;=,92</text>
</g>
<!-- No (5) -->
<g id="node22" class="node"><title>No (5)</title>
<ellipse fill="none" stroke="black" cx="1034.44" cy="-18" rx="34.394" ry="18"/>
<text text-anchor="middle" x="1034.44" y="-14.3" font-family="Times,serif" font-size="14.00">No (5)</text>
</g>
<!-- Annual_Income (5)&#45;&gt;No (5) -->
<g id="edge20" class="edge"><title>Annual_Income (5)&#45;&gt;No (5)</title>
<path fill="none" stroke="blue" d="M1046.08,-174.163C1055.13,-161.006 1066.54,-141.846 1071.44,-123 1075.48,-107.517 1075.39,-102.506 1071.44,-87 1067.52,-71.5929 1059.33,-55.9056 1051.64,-43.4866"/>
<polygon fill="blue" stroke="blue" points="1054.57,-41.5721 1046.2,-35.072 1048.69,-45.3708 1054.57,-41.5721"/>
<text text-anchor="middle" x="1087.44" y="-101.3" font-family="Times,serif" font-size="14.00">&gt;,92</text>
</g>
<!-- Home_Owner (5)&#45;&gt;No (5) -->
<g id="edge21" class="edge"><title>Home_Owner (5)&#45;&gt;No (5)</title>
<path fill="none" stroke="red" d="M986.294,-86.9381C985.259,-76.8523 985.439,-64.1167 990.443,-54 993.397,-48.0289 997.904,-42.754 1002.92,-38.2284"/>
<polygon fill="red" stroke="red" points="1005.44,-40.7025 1011.09,-31.7412 1001.08,-35.2219 1005.44,-40.7025"/>
<text text-anchor="middle" x="1001.44" y="-57.8" font-family="Times,serif" font-size="14.00">Yes</text>
</g>
<!-- Home_Owner (5)&#45;&gt;No (5) -->
<g id="edge22" class="edge"><title>Home_Owner (5)&#45;&gt;No (5)</title>
<path fill="none" stroke="blue" d="M1001.5,-86.9052C1005.21,-81.3187 1009.18,-75.0047 1012.44,-69 1016.52,-61.5012 1020.45,-53.0951 1023.83,-45.3466"/>
<polygon fill="blue" stroke="blue" points="1027.11,-46.5743 1027.79,-36.0012 1020.67,-43.8428 1027.11,-46.5743"/>
<text text-anchor="middle" x="1028.94" y="-57.8" font-family="Times,serif" font-size="14.00">No</text>
</g>
</g>
</svg>
